0
SECTION
2
HEADER
9
$INSUNITS
70
4
9
$ACADVER
1
AC1014
9
$HANDSEED
5
FFFF
0
ENDSEC
0
SECTION
2
TABLES
0
TABLE
2
VPORT
5
8
100
AcDbSymbolTable
0
ENDTAB
0
TABLE
2
LTYPE
5
5
100
AcDbSymbolTable
0
LTYPE
5
14
100
AcDbSymbolTableRecord
100
AcDbLinetypeTableRecord
2
BYBLOCK
70
0
0
LTYPE
5
15
100
AcDbSymbolTableRecord
100
AcDbLinetypeTableRecord
2
BYLAYER
70
0
0
ENDTAB
0
TABLE
2
LAYER
5
2
100
AcDbSymbolTable
70
2
0
LAYER
5
50
100
AcDbSymbolTableRecord
100
AcDbLayerTableRecord
2
0
70
0
6
CONTINUOUS
0
ENDTAB
0
TABLE
2
STYLE
5
3
100
AcDbSymbolTable
70
1
0
STYLE
5
11
100
AcDbSymbolTableRecord
100
AcDbTextStyleTableRecord
2
STANDARD
70
0
0
ENDTAB
0
TABLE
2
VIEW
5
6
100
AcDbSymbolTable
70
0
0
ENDTAB
0
TABLE
2
UCS
5
7
100
AcDbSymbolTable
70
0
0
ENDTAB
0
TABLE
2
APPID
5
9
100
AcDbSymbolTable
70
2
0
APPID
5
12
100
AcDbSymbolTableRecord
100
AcDbRegAppTableRecord
2
ACAD
70
0
0
ENDTAB
0
TABLE
2
DIMSTYLE
5
A
100
AcDbSymbolTable
70
1
0
ENDTAB
0
TABLE
2
BLOCK_RECORD
5
1
100
AcDbSymbolTable
70
1
0
BLOCK_RECORD
5
1F
100
AcDbSymbolTableRecord
100
AcDbBlockTableRecord
2
*MODEL_SPACE
0
BLOCK_RECORD
5
1B
100
AcDbSymbolTableRecord
100
AcDbBlockTableRecord
2
*PAPER_SPACE
0
ENDTAB
0
ENDSEC
0
SECTION
2
BLOCKS
0
BLOCK
5
20
100
AcDbEntity
100
AcDbBlockBegin
2
*MODEL_SPACE
0
ENDBLK
5
21
100
AcDbEntity
100
AcDbBlockEnd
0
BLOCK
5
1C
100
AcDbEntity
100
AcDbBlockBegin
2
*PAPER_SPACE
0
ENDBLK
5
1D
100
AcDbEntity
100
AcDbBlockEnd
0
ENDSEC
0
SECTION
2
ENTITIES
0
CIRCLE
5
100
100
AcDbEntity
8
0
100
AcDbCircle
10
-98.412299999999988
20
144.01799999999994
30
0
40
7.9756
210
0
220
0
230
-1
0
CIRCLE
5
101
100
AcDbEntity
8
0
100
AcDbCircle
10
-113.39829999999992
20
102.61600000000001
30
0
40
1.8000000000000005
210
0
220
0
230
-1
0
ARC
5
102
100
AcDbEntity
8
0
100
AcDbCircle
10
-182.26829999999993
20
176.29000000000005
30
0
40
2.2800000000000509
210
0
220
0
230
-1
100
AcDbArc
50
90.000000000000711
51
180
0
LINE
5
103
100
AcDbEntity
8
0
100
AcDbLine
10
60.820299999999961
20
100.33000000000001
30
0
11
78.092299999999923
21
100.33000000000004
31
0
0
LINE
5
104
100
AcDbEntity
8
0
100
AcDbLine
10
58.778339779839975
20
34.089998013240013
30
0
11
58.788299999999971
21
98.298000000000002
31
0
0
LINE
5
105
100
AcDbEntity
8
0
100
AcDbLine
10
64.884299999999939
20
100.33000000000001
30
0
11
78.092299999999923
21
100.33000000000004
31
0
0
LINE
5
106
100
AcDbEntity
8
0
100
AcDbLine
10
184.54829999999998
20
176.29000000000005
30
0
11
184.62829999999994
21
17.729999999999997
31
0
0
CIRCLE
5
107
100
AcDbEntity
8
0
100
AcDbCircle
10
176.58829999999998
20
170.88999999999999
30
0
40
1.6000000000000014
210
0
220
0
230
1
0
CIRCLE
5
108
100
AcDbEntity
8
0
100
AcDbCircle
10
-131.43229999999986
20
116.586
30
0
40
3.5000000000000009
210
0
220
0
230
-1
0
LINE
5
109
100
AcDbEntity
8
0
100
AcDbLine
10
58.778339779839975
20
34.089998013240013
30
0
11
58.788299999999936
21
57.657999999999987
31
0
0
LINE
5
110
100
AcDbEntity
8
0
100
AcDbLine
10
60.820299999999961
20
100.33000000000001
30
0
11
64.884299999999939
21
100.33000000000001
31
0
0
ARC
5
111
100
AcDbEntity
8
0
100
AcDbCircle
10
60.810339779839978
20
16.973852904631297
30
0
40
2.0319999999999983
210
0
220
0
230
1
100
AcDbArc
50
180
51
270.03224297887692
0
ARC
5
112
100
AcDbEntity
8
0
100
AcDbCircle
10
-131.39031799773483
20
143.5024752406857
30
0
40
10.396039602375062
210
0
220
0
230
-1
100
AcDbArc
50
-343.3717767575659
51
8.6258907811908614
0
ARC
5
113
100
AcDbEntity
8
0
100
AcDbCircle
10
60.820299999999932
20
98.298000000000059
30
0
40
2.0319999999999894
210
0
220
-0
230
1
100
AcDbArc
50
89.999999999999204
51
180
0
CIRCLE
5
114
100
AcDbEntity
8
0
100
AcDbCircle
10
-131.43229999999986
20
96.266000000000034
30
0
40
7.9756
210
0
220
0
230
-1
0
ARC
5
115
100
AcDbEntity
8
0
100
AcDbCircle
10
-82.15630000000003
20
176.52999999999994
30
0
40
2.0320000000000427
210
0
220
0
230
-1
100
AcDbArc
50
0
51
89.999999999998394
0
ARC
5
116
100
AcDbEntity
8
0
100
AcDbCircle
10
-181.90829999999994
20
17.730000000000008
30
0
40
2.7200000000000202
210
0
220
-0
230
-1
100
AcDbArc
50
180
51
270.00000000000063
0
CIRCLE
5
117
100
AcDbEntity
8
0
100
AcDbCircle
10
-151.75229999999999
20
106.42600000000002
30
0
40
2.9399999999999999
210
0
220
0
230
-1
0
CIRCLE
5
118
100
AcDbEntity
8
0
100
AcDbCircle
10
131.43229999999986
20
96.266000000000034
30
0
40
7.7000000000000028
210
0
220
0
230
1
0
ARC
5
119
100
AcDbEntity
8
0
100
AcDbCircle
10
82.15630000000003
20
176.52999999999992
30
0
40
2.0320000000000604
210
0
220
0
230
1
100
AcDbArc
50
90.000000000001592
51
180
0
CIRCLE
5
120
100
AcDbEntity
8
0
100
AcDbCircle
10
66.548299999999969
20
92.64999999999992
30
0
40
1.6000000000000023
210
0
220
0
230
1
0
LINE
5
121
100
AcDbEntity
8
0
100
AcDbLine
10
58.788299999999936
20
57.657999999999987
30
0
11
58.788299999999971
21
98.298000000000002
31
0
0
ARC
5
122
100
AcDbEntity
8
0
100
AcDbCircle
10
-60.820299999999975
20
98.297999999999988
30
0
40
2.0320000000000427
210
0
220
0
230
-1
100
AcDbArc
50
0
51
89.999999999999602
0
CIRCLE
5
123
100
AcDbEntity
8
0
100
AcDbCircle
10
131.39031799773471
20
49.245049512486077
30
0
40
7.7000000000000028
210
0
220
0
230
1
0
CIRCLE
5
124
100
AcDbEntity
8
0
100
AcDbCircle
10
-131.43229999999986
20
75.945999999999998
30
0
40
3.5000000000000009
210
0
220
0
230
-1
0
LINE
5
125
100
AcDbEntity
8
0
100
AcDbLine
10
82.156299999999973
20
178.56200000000001
30
0
11
182.26829999999995
21
178.57000000000011
31
0
0
CIRCLE
5
126
100
AcDbEntity
8
0
100
AcDbCircle
10
-141.59230000000005
20
81.026000000000025
30
0
40
2.9399999999999999
210
0
220
0
230
-1
0
ARC
5
127
100
AcDbEntity
8
0
100
AcDbCircle
10
181.90829999999991
20
17.729999999999961
30
0
40
2.7200000000000046
210
0
220
0
230
1
100
AcDbArc
50
-90
51
0
0
CIRCLE
5
128
100
AcDbEntity
8
0
100
AcDbCircle
10
87.868299999999948
20
170.73000000000005
30
0
40
1.6000000000000072
210
0
220
0
230
1
0
LINE
5
129
100
AcDbEntity
8
0
100
AcDbLine
10
82.156299999999973
20
178.56200000000001
30
0
11
182.26829999999995
21
178.57000000000011
31
0
0
ARC
5
130
100
AcDbEntity
8
0
100
AcDbCircle
10
78.092299999999909
20
102.36200000000008
30
0
40
2.0320000000000249
210
-0
220
0
230
1
100
AcDbArc
50
270.0000000000004
51
360
0
LINE
5
131
100
AcDbEntity
8
0
100
AcDbLine
10
80.124299999999934
20
102.36200000000004
30
0
11
80.124299999999977
21
176.52999999999997
31
0
0
LINE
5
132
100
AcDbEntity
8
0
100
AcDbLine
10
80.124299999999934
20
102.36200000000004
30
0
11
80.124299999999977
21
176.52999999999997
31
0
0
CIRCLE
5
133
100
AcDbEntity
8
0
100
AcDbCircle
10
-159.3723
20
144.01799999999994
30
0
40
6.0960000000000001
210
0
220
0
230
-1
0
LINE
5
134
100
AcDbEntity
8
0
100
AcDbLine
10
58.778339779839975
20
16.973852904631297
30
0
11
58.778339779839975
21
34.089998013240013
31
0
0
CIRCLE
5
135
100
AcDbEntity
8
0
100
AcDbCircle
10
176.82829999999996
20
22.769999999999971
30
0
40
1.5999999999999972
210
0
220
0
230
1
0
LINE
5
136
100
AcDbEntity
8
0
100
AcDbLine
10
181.90829999999991
20
15.009999999999987
30
0
11
110.82830000000001
21
14.969999999999947
31
0
0
CIRCLE
5
137
100
AcDbEntity
8
0
100
AcDbCircle
10
-98.412299999999988
20
48.513999999999982
30
0
40
7.9756
210
0
220
0
230
-1
0
LINE
5
138
100
AcDbEntity
8
0
100
AcDbLine
10
181.90829999999991
20
15.009999999999987
30
0
11
110.82830000000001
21
14.969999999999947
31
0
0
CIRCLE
5
139
100
AcDbEntity
8
0
100
AcDbCircle
10
131.39031799773485
20
143.5024752406861
30
0
40
7.7000000000000099
210
0
220
0
230
1
0
CIRCLE
5
140
100
AcDbEntity
8
0
100
AcDbCircle
10
-131.39031799773471
20
49.245049512486077
30
0
40
10.396039602375
210
0
220
0
230
-1
0
LINE
5
141
100
AcDbEntity
8
0
100
AcDbLine
10
110.82830000000001
20
14.969999999999947
30
0
11
60.811483279940276
21
14.941853226381443
31
0
0
CIRCLE
5
142
100
AcDbEntity
8
0
100
AcDbCircle
10
-113.39829999999992
20
92.456000000000031
30
0
40
1.8000000000000005
210
0
220
0
230
-1
0
CIRCLE
5
143
100
AcDbEntity
8
0
100
AcDbCircle
10
-159.3723
20
48.513999999999982
30
0
40
6.0960000000000001
210
0
220
0
230
-1
0
ARC
5
144
100
AcDbEntity
8
0
100
AcDbCircle
10
182.26830000000007
20
176.29000000000013
30
0
40
2.2799999999999443
210
0
220
0
230
1
100
AcDbArc
50
0
51
90.000000000002856
0
CIRCLE
5
145
100
AcDbEntity
8
0
100
AcDbCircle
10
66.548299999999969
20
21.005171916247964
30
0
40
1.6000000000000003
210
0
220
0
230
1
0
LINE
5
146
100
AcDbEntity
8
0
100
AcDbLine
10
184.54829999999998
20
176.29000000000005
30
0
11
184.62829999999994
21
17.729999999999997
31
0
0
ARC
5
147
100
AcDbEntity
8
0
100
AcDbCircle
10
78.092299999999923
20
102.36200000000004
30
0
40
2.0320000000000249
210
0
220
0
230
1
100
AcDbArc
50
-90
51
0
0
LINE
5
148
100
AcDbEntity
8
0
100
AcDbLine
10
82.156299999999973
20
178.56200000000001
30
0
11
182.26829999999995
21
178.57000000000011
31
0
0
CIRCLE
5
149
100
AcDbEntity
8
0
100
AcDbCircle
10
131.39031799773483
20
143.5024752406857
30
0
40
10.396039602375065
210
0
220
0
230
1
0
ENDSEC
0
SECTION
2
OBJECTS
0
DICTIONARY
5
C
100
AcDbDictionary
3
ACAD_GROUP
350
D
3
ACAD_MLINESTYLE
350
17
0
DICTIONARY
5
D
100
AcDbDictionary
0
DICTIONARY
5
1A
330
C
100
AcDbDictionary
0
DICTIONARY
5
17
100
AcDbDictionary
0
ENDSEC
0
EOF
