%TF.GenerationSoftware,KiCad,Pcbnew,(6.0.4-0)*%
%TF.CreationDate,2022-06-27T16:54:41+01:00*%
%TF.ProjectId,isoBig,69736f42-6967-42e6-9b69-6361645f7063,rev?*%
%TF.SameCoordinates,Original*%
%TF.FileFunction,Soldermask,Bot*%
%TF.FilePolarity,Negative*%
%FSLAX46Y46*%
G04 Gerber Fmt 4.6, Leading zero omitted, Abs format (unit mm)*
G04 Created by KiCad (PCBNEW (6.0.4-0)) date 2022-06-27 16:54:41*
%MOMM*%
%LPD*%
G01*
G04 APERTURE LIST*
G04 Aperture macros list*
%AMRoundRect*
0 Rectangle with rounded corners*
0 $1 Rounding radius*
0 $2 $3 $4 $5 $6 $7 $8 $9 X,Y pos of 4 corners*
0 Add a 4 corners polygon primitive as box body*
4,1,4,$2,$3,$4,$5,$6,$7,$8,$9,$2,$3,0*
0 Add four circle primitives for the rounded corners*
1,1,$1+$1,$2,$3*
1,1,$1+$1,$4,$5*
1,1,$1+$1,$6,$7*
1,1,$1+$1,$8,$9*
0 Add four rect primitives between the rounded corners*
20,1,$1+$1,$2,$3,$4,$5,0*
20,1,$1+$1,$4,$5,$6,$7,0*
20,1,$1+$1,$6,$7,$8,$9,0*
20,1,$1+$1,$8,$9,$2,$3,0*%
G04 Aperture macros list end*
%ADD10C,2.082800*%
%ADD11RoundRect,0.101600X0.939800X-0.939800X0.939800X0.939800X-0.939800X0.939800X-0.939800X-0.939800X0*%
%ADD12R,1.700000X1.700000*%
%ADD13O,1.700000X1.700000*%
%ADD14C,14.000000*%
%ADD15O,2.400000X4.400000*%
%ADD16O,1.400000X5.400000*%
%ADD17C,1.524000*%
G04 APERTURE END LIST*
D10*
%TO.C, *%
X128532000Y-44000000D03*
X128278000Y-46540000D03*
X128532000Y-49080000D03*
X128278000Y-51620000D03*
X128532000Y-54160000D03*
X128278000Y-56700000D03*
X128532000Y-59240000D03*
X128278000Y-61780000D03*
X128532000Y-64320000D03*
X128278000Y-66860000D03*
X128532000Y-69400000D03*
X128278000Y-71940000D03*
X128532000Y-74480000D03*
X128278000Y-77020000D03*
X128532000Y-79560000D03*
X128278000Y-82100000D03*
X128532000Y-84640000D03*
X128278000Y-87180000D03*
X128532000Y-89720000D03*
X128278000Y-92260000D03*
X143772000Y-92260000D03*
X143518000Y-89720000D03*
X143772000Y-87180000D03*
X143518000Y-84640000D03*
X143772000Y-82100000D03*
X143518000Y-79560000D03*
X143772000Y-77020000D03*
X143518000Y-74480000D03*
X143772000Y-71940000D03*
X143518000Y-69400000D03*
X143772000Y-66860000D03*
X143518000Y-64320000D03*
X143772000Y-61780000D03*
X143518000Y-59240000D03*
X143772000Y-56700000D03*
X143518000Y-54160000D03*
X143772000Y-51620000D03*
X143518000Y-49080000D03*
X143772000Y-46540000D03*
X143518000Y-44000000D03*
D11*
X132215000Y-88277000D03*
D10*
X134755000Y-88023000D03*
X137295000Y-88277000D03*
X139835000Y-88023000D03*
%TD*%
D12*
%TO.C,J1*%
X147775000Y-92250000D03*
D13*
X147775000Y-89710000D03*
X147775000Y-87170000D03*
X147775000Y-84630000D03*
X147775000Y-82090000D03*
X147775000Y-79550000D03*
X147775000Y-77010000D03*
X147775000Y-74470000D03*
X147775000Y-71930000D03*
X147775000Y-69390000D03*
X147775000Y-66850000D03*
X147775000Y-64310000D03*
X147775000Y-61770000D03*
X147775000Y-59230000D03*
X147775000Y-56690000D03*
X147775000Y-54150000D03*
X147775000Y-51610000D03*
X147775000Y-49070000D03*
X147775000Y-46530000D03*
X147775000Y-43990000D03*
%TD*%
D12*
%TO.C,J3*%
X124225000Y-44000000D03*
D13*
X124225000Y-46540000D03*
X124225000Y-49080000D03*
X124225000Y-51620000D03*
X124225000Y-54160000D03*
X124225000Y-56700000D03*
X124225000Y-59240000D03*
X124225000Y-61780000D03*
X124225000Y-64320000D03*
X124225000Y-66860000D03*
X124225000Y-69400000D03*
X124225000Y-71940000D03*
X124225000Y-74480000D03*
X124225000Y-77020000D03*
X124225000Y-79560000D03*
X124225000Y-82100000D03*
X124225000Y-84640000D03*
X124225000Y-87180000D03*
X124225000Y-89720000D03*
X124225000Y-92260000D03*
%TD*%
D12*
%TO.C,J2*%
X132210000Y-97100000D03*
D13*
X134750000Y-97100000D03*
X137290000Y-97100000D03*
X139830000Y-97100000D03*
%TD*%
D12*
%TO.C,  *%
X137200000Y-71950000D03*
D13*
X139740000Y-71950000D03*
X137200000Y-74490000D03*
X139740000Y-74490000D03*
X137200000Y-77030000D03*
X139740000Y-77030000D03*
X137200000Y-79570000D03*
X139740000Y-79570000D03*
X137200000Y-82110000D03*
X139740000Y-82110000D03*
%TD*%
D12*
%TO.C, *%
X132050000Y-71950000D03*
D13*
X134590000Y-71950000D03*
X132050000Y-74490000D03*
X134590000Y-74490000D03*
X132050000Y-77030000D03*
X134590000Y-77030000D03*
X132050000Y-79570000D03*
X134590000Y-79570000D03*
X132050000Y-82110000D03*
X134590000Y-82110000D03*
%TD*%
D14*
%TO.C, *%
X79175000Y-103650000D03*
D15*
X69175000Y-88650000D03*
D16*
X59175000Y-113650000D03*
D17*
X99175000Y-113650000D03*
X99175000Y-108650000D03*
X99175000Y-98650000D03*
X99175000Y-93650000D03*
%TD*%
D14*
%TO.C, *%
X79200000Y-56600000D03*
D15*
X69200000Y-41600000D03*
D16*
X59200000Y-66600000D03*
D17*
X99200000Y-66600000D03*
X99200000Y-61600000D03*
X99200000Y-51600000D03*
X99200000Y-46600000D03*
%TD*%
D14*
%TO.C, *%
X79125000Y-150900000D03*
D15*
X69125000Y-135900000D03*
D16*
X59125000Y-160900000D03*
D17*
X99125000Y-160900000D03*
X99125000Y-155900000D03*
X99125000Y-145900000D03*
X99125000Y-140900000D03*
%TD*%
M02*
