%TF.GenerationSoftware,KiCad,Pcbnew,(6.0.4-0)*%
%TF.CreationDate,2022-06-27T16:54:40+01:00*%
%TF.ProjectId,isoBig,69736f42-6967-42e6-9b69-6361645f7063,rev?*%
%TF.SameCoordinates,Original*%
%TF.FileFunction,Copper,L1,Top*%
%TF.FilePolarity,Positive*%
%FSLAX46Y46*%
G04 Gerber Fmt 4.6, Leading zero omitted, Abs format (unit mm)*
G04 Created by KiCad (PCBNEW (6.0.4-0)) date 2022-06-27 16:54:40*
%MOMM*%
%LPD*%
G01*
G04 APERTURE LIST*
G04 Aperture macros list*
%AMFreePoly0*
4,1,22,0.500000,-0.750000,0.000000,-0.750000,0.000000,-0.745033,-0.079941,-0.743568,-0.215256,-0.701293,-0.333266,-0.622738,-0.424486,-0.514219,-0.481581,-0.384460,-0.499164,-0.250000,-0.500000,-0.250000,-0.500000,0.250000,-0.499164,0.250000,-0.499963,0.256109,-0.478152,0.396186,-0.417904,0.524511,-0.324060,0.630769,-0.204165,0.706417,-0.067858,0.745374,0.000000,0.744959,0.000000,0.750000,
0.500000,0.750000,0.500000,-0.750000,0.500000,-0.750000,$1*%
%AMFreePoly1*
4,1,20,0.000000,0.744959,0.073905,0.744508,0.209726,0.703889,0.328688,0.626782,0.421226,0.519385,0.479903,0.390333,0.500000,0.250000,0.500000,-0.250000,0.499851,-0.262216,0.476331,-0.402017,0.414519,-0.529596,0.319384,-0.634700,0.198574,-0.708877,0.061801,-0.746166,0.000000,-0.745033,0.000000,-0.750000,-0.500000,-0.750000,-0.500000,0.750000,0.000000,0.750000,0.000000,0.744959,
0.000000,0.744959,$1*%
G04 Aperture macros list end*
%TA.AperFunction,ComponentPad*%
%ADD10C,1.879600*%
%TD*%
%TA.AperFunction,ComponentPad*%
%ADD11R,1.879600X1.879600*%
%TD*%
%TA.AperFunction,SMDPad,CuDef*%
%ADD12FreePoly0,0.000000*%
%TD*%
%TA.AperFunction,SMDPad,CuDef*%
%ADD13FreePoly1,0.000000*%
%TD*%
%TA.AperFunction,ComponentPad*%
%ADD14R,1.700000X1.700000*%
%TD*%
%TA.AperFunction,ComponentPad*%
%ADD15O,1.700000X1.700000*%
%TD*%
%TA.AperFunction,SMDPad,CuDef*%
%ADD16FreePoly0,180.000000*%
%TD*%
%TA.AperFunction,SMDPad,CuDef*%
%ADD17FreePoly1,180.000000*%
%TD*%
%TA.AperFunction,ComponentPad*%
%ADD18C,14.000000*%
%TD*%
%TA.AperFunction,ComponentPad*%
%ADD19O,2.400000X4.400000*%
%TD*%
%TA.AperFunction,ComponentPad*%
%ADD20O,1.400000X5.400000*%
%TD*%
%TA.AperFunction,ComponentPad*%
%ADD21C,1.524000*%
%TD*%
%TA.AperFunction,ViaPad*%
%ADD22C,0.800000*%
%TD*%
%TA.AperFunction,Conductor*%
%ADD23C,0.750000*%
%TD*%
G04 APERTURE END LIST*
D10*
%TO.P, ,1,PB12*%
%TO.N,1*%
X128532000Y-44000000D03*
%TO.P, ,2,PB13*%
%TO.N,2*%
X128278000Y-46540000D03*
%TO.P, ,3,PB14*%
%TO.N,3*%
X128532000Y-49080000D03*
%TO.P, ,4,PB15*%
%TO.N,4*%
X128278000Y-51620000D03*
%TO.P, ,5,PA8*%
%TO.N,5*%
X128532000Y-54160000D03*
%TO.P, ,6,PA9*%
%TO.N,6*%
X128278000Y-56700000D03*
%TO.P, ,7,PA10*%
%TO.N,7*%
X128532000Y-59240000D03*
%TO.P, ,8,PA11*%
%TO.N,8*%
X128278000Y-61780000D03*
%TO.P, ,9,PA12*%
%TO.N,9*%
X128532000Y-64320000D03*
%TO.P, ,10,PA15*%
%TO.N,10*%
X128278000Y-66860000D03*
%TO.P, ,11,PB3*%
%TO.N,11*%
X128532000Y-69400000D03*
%TO.P, ,12,PB4*%
%TO.N,12*%
X128278000Y-71940000D03*
%TO.P, ,13,PB5*%
%TO.N,13*%
X128532000Y-74480000D03*
%TO.P, ,14,PB6*%
%TO.N,14*%
X128278000Y-77020000D03*
%TO.P, ,15,PB7*%
%TO.N,15*%
X128532000Y-79560000D03*
%TO.P, ,16,PB8*%
%TO.N,16*%
X128278000Y-82100000D03*
%TO.P, ,17,PB9*%
%TO.N,17*%
X128532000Y-84640000D03*
%TO.P, ,18,5V*%
%TO.N,18*%
X128278000Y-87180000D03*
%TO.P, ,19,GND*%
%TO.N,19*%
X128532000Y-89720000D03*
%TO.P, ,20,3V3*%
%TO.N,20*%
X128278000Y-92260000D03*
%TO.P, ,21,VBAT*%
%TO.N,21*%
X143772000Y-92260000D03*
%TO.P, ,22,PC13*%
%TO.N,22*%
X143518000Y-89720000D03*
%TO.P, ,23,PC14*%
%TO.N,23*%
X143772000Y-87180000D03*
%TO.P, ,24,PC15*%
%TO.N,24*%
X143518000Y-84640000D03*
%TO.P, ,25,~{RESET}*%
%TO.N,25*%
X143772000Y-82100000D03*
%TO.P, ,26,PA0*%
%TO.N,26*%
X143518000Y-79560000D03*
%TO.P, ,27,PA1*%
%TO.N,27*%
X143772000Y-77020000D03*
%TO.P, ,28,PA2*%
%TO.N,28*%
X143518000Y-74480000D03*
%TO.P, ,29,PA3*%
%TO.N,29*%
X143772000Y-71940000D03*
%TO.P, ,30,PA4*%
%TO.N,30*%
X143518000Y-69400000D03*
%TO.P, ,31,PA5*%
%TO.N,31*%
X143772000Y-66860000D03*
%TO.P, ,32,PA6*%
%TO.N,32*%
X143518000Y-64320000D03*
%TO.P, ,33,PA7*%
%TO.N,33*%
X143772000Y-61780000D03*
%TO.P, ,34,PB0*%
%TO.N,34*%
X143518000Y-59240000D03*
%TO.P, ,35,PB1*%
%TO.N,35*%
X143772000Y-56700000D03*
%TO.P, ,36,PB2*%
%TO.N,36*%
X143518000Y-54160000D03*
%TO.P, ,37,PB10*%
%TO.N,37*%
X143772000Y-51620000D03*
%TO.P, ,38,3V3*%
%TO.N,38*%
X143518000Y-49080000D03*
%TO.P, ,39,GND*%
%TO.N,39*%
X143772000Y-46540000D03*
%TO.P, ,40,5V*%
%TO.N,40*%
X143518000Y-44000000D03*
D11*
%TO.P, ,41,3.3V*%
%TO.N,41*%
X132215000Y-88277000D03*
D10*
%TO.P, ,42,SWDIO*%
%TO.N,42*%
X134755000Y-88023000D03*
%TO.P, ,43,SWSCK*%
%TO.N,43*%
X137295000Y-88277000D03*
%TO.P, ,44,GND*%
%TO.N,44*%
X139835000Y-88023000D03*
%TD*%
D12*
%TO.P, ,1,A*%
%TO.N,Net-(JP2-Pad1)*%
X139725000Y-56425000D03*
D13*
%TO.P, ,2,B*%
%TO.N,35*%
X141025000Y-56425000D03*
%TD*%
D14*
%TO.P,J1,1,Pin_1*%
%TO.N,21*%
X147775000Y-92250000D03*
D15*
%TO.P,J1,2,Pin_2*%
%TO.N,22*%
X147775000Y-89710000D03*
%TO.P,J1,3,Pin_3*%
%TO.N,23*%
X147775000Y-87170000D03*
%TO.P,J1,4,Pin_4*%
%TO.N,24*%
X147775000Y-84630000D03*
%TO.P,J1,5,Pin_5*%
%TO.N,25*%
X147775000Y-82090000D03*
%TO.P,J1,6,Pin_6*%
%TO.N,26*%
X147775000Y-79550000D03*
%TO.P,J1,7,Pin_7*%
%TO.N,27*%
X147775000Y-77010000D03*
%TO.P,J1,8,Pin_8*%
%TO.N,28*%
X147775000Y-74470000D03*
%TO.P,J1,9,Pin_9*%
%TO.N,29*%
X147775000Y-71930000D03*
%TO.P,J1,10,Pin_10*%
%TO.N,30*%
X147775000Y-69390000D03*
%TO.P,J1,11,Pin_11*%
%TO.N,31*%
X147775000Y-66850000D03*
%TO.P,J1,12,Pin_12*%
%TO.N,32*%
X147775000Y-64310000D03*
%TO.P,J1,13,Pin_13*%
%TO.N,33*%
X147775000Y-61770000D03*
%TO.P,J1,14,Pin_14*%
%TO.N,34*%
X147775000Y-59230000D03*
%TO.P,J1,15,Pin_15*%
%TO.N,35*%
X147775000Y-56690000D03*
%TO.P,J1,16,Pin_16*%
%TO.N,36*%
X147775000Y-54150000D03*
%TO.P,J1,17,Pin_17*%
%TO.N,37*%
X147775000Y-51610000D03*
%TO.P,J1,18,Pin_18*%
%TO.N,38*%
X147775000Y-49070000D03*
%TO.P,J1,19,Pin_19*%
%TO.N,39*%
X147775000Y-46530000D03*
%TO.P,J1,20,Pin_20*%
%TO.N,40*%
X147775000Y-43990000D03*
%TD*%
D16*
%TO.P, ,1,A*%
%TO.N,36*%
X141025000Y-54225000D03*
D17*
%TO.P, ,2,B*%
%TO.N,Net-(SW3-Pad2)*%
X139725000Y-54225000D03*
%TD*%
D12*
%TO.P, ,1,A*%
%TO.N,Net-(SW3-Pad2)*%
X140175000Y-61800000D03*
D13*
%TO.P, ,2,B*%
%TO.N,33*%
X141475000Y-61800000D03*
%TD*%
D14*
%TO.P,J3,1,Pin_1*%
%TO.N,1*%
X124225000Y-44000000D03*
D15*
%TO.P,J3,2,Pin_2*%
%TO.N,2*%
X124225000Y-46540000D03*
%TO.P,J3,3,Pin_3*%
%TO.N,3*%
X124225000Y-49080000D03*
%TO.P,J3,4,Pin_4*%
%TO.N,4*%
X124225000Y-51620000D03*
%TO.P,J3,5,Pin_5*%
%TO.N,5*%
X124225000Y-54160000D03*
%TO.P,J3,6,Pin_6*%
%TO.N,6*%
X124225000Y-56700000D03*
%TO.P,J3,7,Pin_7*%
%TO.N,7*%
X124225000Y-59240000D03*
%TO.P,J3,8,Pin_8*%
%TO.N,8*%
X124225000Y-61780000D03*
%TO.P,J3,9,Pin_9*%
%TO.N,9*%
X124225000Y-64320000D03*
%TO.P,J3,10,Pin_10*%
%TO.N,10*%
X124225000Y-66860000D03*
%TO.P,J3,11,Pin_11*%
%TO.N,11*%
X124225000Y-69400000D03*
%TO.P,J3,12,Pin_12*%
%TO.N,12*%
X124225000Y-71940000D03*
%TO.P,J3,13,Pin_13*%
%TO.N,13*%
X124225000Y-74480000D03*
%TO.P,J3,14,Pin_14*%
%TO.N,14*%
X124225000Y-77020000D03*
%TO.P,J3,15,Pin_15*%
%TO.N,15*%
X124225000Y-79560000D03*
%TO.P,J3,16,Pin_16*%
%TO.N,16*%
X124225000Y-82100000D03*
%TO.P,J3,17,Pin_17*%
%TO.N,17*%
X124225000Y-84640000D03*
%TO.P,J3,18,Pin_18*%
%TO.N,18*%
X124225000Y-87180000D03*
%TO.P,J3,19,Pin_19*%
%TO.N,19*%
X124225000Y-89720000D03*
%TO.P,J3,20,Pin_20*%
%TO.N,20*%
X124225000Y-92260000D03*
%TD*%
D14*
%TO.P,J2,1,Pin_1*%
%TO.N,41*%
X132210000Y-97100000D03*
D15*
%TO.P,J2,2,Pin_2*%
%TO.N,42*%
X134750000Y-97100000D03*
%TO.P,J2,3,Pin_3*%
%TO.N,43*%
X137290000Y-97100000D03*
%TO.P,J2,4,Pin_4*%
%TO.N,44*%
X139830000Y-97100000D03*
%TD*%
D12*
%TO.P, ,1,A*%
%TO.N,Net-(JP2-Pad1)*%
X131325000Y-66825000D03*
D13*
%TO.P, ,2,B*%
%TO.N,19*%
X132625000Y-66825000D03*
%TD*%
D14*
%TO.P,  ,1*%
%TO.N,N/C*%
X137200000Y-71950000D03*
D15*
%TO.P,  ,2*%
X139740000Y-71950000D03*
%TO.P,  ,3*%
X137200000Y-74490000D03*
%TO.P,  ,4*%
X139740000Y-74490000D03*
%TO.P,  ,5*%
X137200000Y-77030000D03*
%TO.P,  ,6*%
X139740000Y-77030000D03*
%TO.P,  ,7*%
X137200000Y-79570000D03*
%TO.P,  ,8*%
X139740000Y-79570000D03*
%TO.P,  ,9*%
X137200000Y-82110000D03*
%TO.P,  ,10*%
X139740000Y-82110000D03*
%TD*%
D14*
%TO.P, ,1*%
%TO.N,N/C*%
X132050000Y-71950000D03*
D15*
%TO.P, ,2*%
X134590000Y-71950000D03*
%TO.P, ,3*%
X132050000Y-74490000D03*
%TO.P, ,4*%
X134590000Y-74490000D03*
%TO.P, ,5*%
X132050000Y-77030000D03*
%TO.P, ,6*%
X134590000Y-77030000D03*
%TO.P, ,7*%
X132050000Y-79570000D03*
%TO.P, ,8*%
X134590000Y-79570000D03*
%TO.P, ,9*%
X132050000Y-82110000D03*
%TO.P, ,10*%
X134590000Y-82110000D03*
%TD*%
D18*
%TO.P, ,*%
%TO.N,*%
X79175000Y-103650000D03*
D19*
%TO.P, ,1,1*%
%TO.N,Net-(JP2-Pad1)*%
X69175000Y-88650000D03*
D20*
%TO.P, ,2,2*%
%TO.N,Net-(SW3-Pad2)*%
X59175000Y-113650000D03*
D21*
%TO.P, ,4*%
%TO.N,N/C*%
X99175000Y-113650000D03*
%TO.P, ,5*%
X99175000Y-108650000D03*
%TO.P, ,6*%
X99175000Y-98650000D03*
%TO.P, ,7*%
X99175000Y-93650000D03*
%TD*%
D18*
%TO.P, ,*%
%TO.N,*%
X79200000Y-56600000D03*
D19*
%TO.P, ,1,1*%
%TO.N,Net-(JP2-Pad1)*%
X69200000Y-41600000D03*
D20*
%TO.P, ,2,2*%
%TO.N,Net-(SW3-Pad2)*%
X59200000Y-66600000D03*
D21*
%TO.P, ,4*%
%TO.N,N/C*%
X99200000Y-66600000D03*
%TO.P, ,5*%
X99200000Y-61600000D03*
%TO.P, ,6*%
X99200000Y-51600000D03*
%TO.P, ,7*%
X99200000Y-46600000D03*
%TD*%
D18*
%TO.P, ,*%
%TO.N,*%
X79125000Y-150900000D03*
D19*
%TO.P, ,1,1*%
%TO.N,unconnected-(SW1-Pad1)*%
X69125000Y-135900000D03*
D20*
%TO.P, ,2,2*%
%TO.N,unconnected-(SW1-Pad2)*%
X59125000Y-160900000D03*
D21*
%TO.P, ,4*%
%TO.N,N/C*%
X99125000Y-160900000D03*
%TO.P, ,5*%
X99125000Y-155900000D03*
%TO.P, ,6*%
X99125000Y-145900000D03*
%TO.P, ,7*%
X99125000Y-140900000D03*
%TD*%
D22*
%TO.N,Net-(SW3-Pad2)*%
X137425000Y-56500000D03*
X137550000Y-60875000D03*
%TD*%
D23*
%TO.N,21*%
X147765000Y-92260000D02*
X147775000Y-92250000D01*
X143772000Y-92260000D02*
X147765000Y-92260000D01*
%TO.N,22*%
X147765000Y-89720000D02*
X147775000Y-89710000D01*
X143518000Y-89720000D02*
X147765000Y-89720000D01*
%TO.N,23*%
X147765000Y-87180000D02*
X147775000Y-87170000D01*
X143772000Y-87180000D02*
X147765000Y-87180000D01*
%TO.N,24*%
X143518000Y-84640000D02*
X147765000Y-84640000D01*
X147765000Y-84640000D02*
X147775000Y-84630000D01*
%TO.N,25*%
X147765000Y-82100000D02*
X147775000Y-82090000D01*
X143772000Y-82100000D02*
X147765000Y-82100000D01*
%TO.N,26*%
X147765000Y-79560000D02*
X147775000Y-79550000D01*
X143518000Y-79560000D02*
X147765000Y-79560000D01*
%TO.N,27*%
X147765000Y-77020000D02*
X147775000Y-77010000D01*
X143772000Y-77020000D02*
X147765000Y-77020000D01*
%TO.N,28*%
X143518000Y-74480000D02*
X147765000Y-74480000D01*
X147765000Y-74480000D02*
X147775000Y-74470000D01*
%TO.N,29*%
X147765000Y-71940000D02*
X147775000Y-71930000D01*
X143772000Y-71940000D02*
X147765000Y-71940000D01*
%TO.N,30*%
X147765000Y-69400000D02*
X147775000Y-69390000D01*
X143518000Y-69400000D02*
X147765000Y-69400000D01*
%TO.N,31*%
X143772000Y-66860000D02*
X147765000Y-66860000D01*
X147765000Y-66860000D02*
X147775000Y-66850000D01*
%TO.N,32*%
X147765000Y-64320000D02*
X147775000Y-64310000D01*
X143518000Y-64320000D02*
X147765000Y-64320000D01*
%TO.N,33*%
X141475000Y-61800000D02*
X143752000Y-61800000D01*
X147765000Y-61780000D02*
X147775000Y-61770000D01*
X143752000Y-61800000D02*
X143772000Y-61780000D01*
X143772000Y-61780000D02*
X147765000Y-61780000D01*
%TO.N,34*%
X143518000Y-59240000D02*
X147765000Y-59240000D01*
X147765000Y-59240000D02*
X147775000Y-59230000D01*
%TO.N,35*%
X143772000Y-56700000D02*
X147765000Y-56700000D01*
X143497000Y-56425000D02*
X143772000Y-56700000D01*
X141025000Y-56425000D02*
X143497000Y-56425000D01*
X147765000Y-56700000D02*
X147775000Y-56690000D01*
%TO.N,36*%
X147765000Y-54160000D02*
X147775000Y-54150000D01*
X141025000Y-54225000D02*
X143453000Y-54225000D01*
X143453000Y-54225000D02*
X143518000Y-54160000D01*
X143518000Y-54160000D02*
X147765000Y-54160000D01*
%TO.N,37*%
X143772000Y-51620000D02*
X147765000Y-51620000D01*
X147765000Y-51620000D02*
X147775000Y-51610000D01*
%TO.N,38*%
X147765000Y-49080000D02*
X147775000Y-49070000D01*
X143518000Y-49080000D02*
X147765000Y-49080000D01*
%TO.N,39*%
X147765000Y-46540000D02*
X147775000Y-46530000D01*
X143772000Y-46540000D02*
X147765000Y-46540000D01*
%TO.N,40*%
X143518000Y-44000000D02*
X147765000Y-44000000D01*
X147765000Y-44000000D02*
X147775000Y-43990000D01*
%TO.N,1*%
X128532000Y-44000000D02*
X124225000Y-44000000D01*
%TO.N,2*%
X128278000Y-46540000D02*
X124225000Y-46540000D01*
%TO.N,3*%
X128532000Y-49080000D02*
X124225000Y-49080000D01*
%TO.N,4*%
X128278000Y-51620000D02*
X124225000Y-51620000D01*
%TO.N,5*%
X128532000Y-54160000D02*
X124225000Y-54160000D01*
%TO.N,6*%
X128278000Y-56700000D02*
X124225000Y-56700000D01*
%TO.N,7*%
X128532000Y-59240000D02*
X124225000Y-59240000D01*
%TO.N,8*%
X128278000Y-61780000D02*
X124225000Y-61780000D01*
%TO.N,9*%
X128532000Y-64320000D02*
X124225000Y-64320000D01*
%TO.N,10*%
X128278000Y-66860000D02*
X124225000Y-66860000D01*
%TO.N,11*%
X128532000Y-69400000D02*
X124225000Y-69400000D01*
%TO.N,12*%
X128278000Y-71940000D02*
X124225000Y-71940000D01*
%TO.N,13*%
X128532000Y-74480000D02*
X124225000Y-74480000D01*
%TO.N,14*%
X128278000Y-77020000D02*
X124225000Y-77020000D01*
%TO.N,15*%
X128532000Y-79560000D02*
X124225000Y-79560000D01*
%TO.N,16*%
X128278000Y-82100000D02*
X124225000Y-82100000D01*
%TO.N,17*%
X128532000Y-84640000D02*
X124225000Y-84640000D01*
%TO.N,18*%
X128278000Y-87180000D02*
X124225000Y-87180000D01*
%TO.N,19*%
X128532000Y-89720000D02*
X124225000Y-89720000D01*
X132625000Y-66825000D02*
X132625000Y-68525978D01*
X130046311Y-71104667D02*
X130046311Y-88205689D01*
X130046311Y-88205689D02*
X128532000Y-89720000D01*
X132625000Y-68525978D02*
X130046311Y-71104667D01*
%TO.N,20*%
X128278000Y-92260000D02*
X124225000Y-92260000D01*
%TO.N,Net-(SW3-Pad2)*%
X139725000Y-43525000D02*
X139725000Y-54225000D01*
X140150000Y-61775000D02*
X140175000Y-61800000D01*
X138450000Y-61775000D02*
X140150000Y-61775000D01*
X59175000Y-66625000D02*
X59200000Y-66600000D01*
X59200000Y-48090450D02*
X68464970Y-38825480D01*
X139700000Y-54225000D02*
X137425000Y-56500000D01*
X59200000Y-66600000D02*
X59200000Y-48090450D01*
X137550000Y-60875000D02*
X138450000Y-61775000D01*
X68464970Y-38825480D02*
X135025480Y-38825480D01*
X59175000Y-113650000D02*
X59175000Y-66625000D01*
X139725000Y-54225000D02*
X139700000Y-54225000D01*
X135025480Y-38825480D02*
X139725000Y-43525000D01*
%TO.N,Net-(JP2-Pad1)*%
X69200000Y-41600000D02*
X69200000Y-88625000D01*
X131325000Y-42850000D02*
X128525000Y-40050000D01*
X69200000Y-88625000D02*
X69175000Y-88650000D01*
X128525000Y-40050000D02*
X70750000Y-40050000D01*
X131325000Y-64825000D02*
X139725000Y-56425000D01*
X131325000Y-66825000D02*
X131325000Y-64825000D01*
X131325000Y-64825000D02*
X131325000Y-42850000D01*
X70750000Y-40050000D02*
X69200000Y-41600000D01*
%TD*%
M02*
