%TF.GenerationSoftware,KiCad,Pcbnew,(6.0.4-0)*%
%TF.CreationDate,2022-06-27T16:54:41+01:00*%
%TF.ProjectId,isoBig,69736f42-6967-42e6-9b69-6361645f7063,rev?*%
%TF.SameCoordinates,Original*%
%TF.FileFunction,Soldermask,Top*%
%TF.FilePolarity,Negative*%
%FSLAX46Y46*%
G04 Gerber Fmt 4.6, Leading zero omitted, Abs format (unit mm)*
G04 Created by KiCad (PCBNEW (6.0.4-0)) date 2022-06-27 16:54:41*
%MOMM*%
%LPD*%
G01*
G04 APERTURE LIST*
G04 Aperture macros list*
%AMRoundRect*
0 Rectangle with rounded corners*
0 $1 Rounding radius*
0 $2 $3 $4 $5 $6 $7 $8 $9 X,Y pos of 4 corners*
0 Add a 4 corners polygon primitive as box body*
4,1,4,$2,$3,$4,$5,$6,$7,$8,$9,$2,$3,0*
0 Add four circle primitives for the rounded corners*
1,1,$1+$1,$2,$3*
1,1,$1+$1,$4,$5*
1,1,$1+$1,$6,$7*
1,1,$1+$1,$8,$9*
0 Add four rect primitives between the rounded corners*
20,1,$1+$1,$2,$3,$4,$5,0*
20,1,$1+$1,$4,$5,$6,$7,0*
20,1,$1+$1,$6,$7,$8,$9,0*
20,1,$1+$1,$8,$9,$2,$3,0*%
%AMFreePoly0*
4,1,22,0.500000,-0.750000,0.000000,-0.750000,0.000000,-0.745033,-0.079941,-0.743568,-0.215256,-0.701293,-0.333266,-0.622738,-0.424486,-0.514219,-0.481581,-0.384460,-0.499164,-0.250000,-0.500000,-0.250000,-0.500000,0.250000,-0.499164,0.250000,-0.499963,0.256109,-0.478152,0.396186,-0.417904,0.524511,-0.324060,0.630769,-0.204165,0.706417,-0.067858,0.745374,0.000000,0.744959,0.000000,0.750000,
0.500000,0.750000,0.500000,-0.750000,0.500000,-0.750000,$1*%
%AMFreePoly1*
4,1,20,0.000000,0.744959,0.073905,0.744508,0.209726,0.703889,0.328688,0.626782,0.421226,0.519385,0.479903,0.390333,0.500000,0.250000,0.500000,-0.250000,0.499851,-0.262216,0.476331,-0.402017,0.414519,-0.529596,0.319384,-0.634700,0.198574,-0.708877,0.061801,-0.746166,0.000000,-0.745033,0.000000,-0.750000,-0.500000,-0.750000,-0.500000,0.750000,0.000000,0.750000,0.000000,0.744959,
0.000000,0.744959,$1*%
G04 Aperture macros list end*
%ADD10C,2.082800*%
%ADD11RoundRect,0.101600X0.939800X-0.939800X0.939800X0.939800X-0.939800X0.939800X-0.939800X-0.939800X0*%
%ADD12FreePoly0,0.000000*%
%ADD13FreePoly1,0.000000*%
%ADD14R,1.700000X1.700000*%
%ADD15O,1.700000X1.700000*%
%ADD16FreePoly0,180.000000*%
%ADD17FreePoly1,180.000000*%
%ADD18C,14.000000*%
%ADD19O,2.400000X4.400000*%
%ADD20O,1.400000X5.400000*%
%ADD21C,1.524000*%
G04 APERTURE END LIST*
D10*
%TO.C, *%
X128532000Y-44000000D03*
X128278000Y-46540000D03*
X128532000Y-49080000D03*
X128278000Y-51620000D03*
X128532000Y-54160000D03*
X128278000Y-56700000D03*
X128532000Y-59240000D03*
X128278000Y-61780000D03*
X128532000Y-64320000D03*
X128278000Y-66860000D03*
X128532000Y-69400000D03*
X128278000Y-71940000D03*
X128532000Y-74480000D03*
X128278000Y-77020000D03*
X128532000Y-79560000D03*
X128278000Y-82100000D03*
X128532000Y-84640000D03*
X128278000Y-87180000D03*
X128532000Y-89720000D03*
X128278000Y-92260000D03*
X143772000Y-92260000D03*
X143518000Y-89720000D03*
X143772000Y-87180000D03*
X143518000Y-84640000D03*
X143772000Y-82100000D03*
X143518000Y-79560000D03*
X143772000Y-77020000D03*
X143518000Y-74480000D03*
X143772000Y-71940000D03*
X143518000Y-69400000D03*
X143772000Y-66860000D03*
X143518000Y-64320000D03*
X143772000Y-61780000D03*
X143518000Y-59240000D03*
X143772000Y-56700000D03*
X143518000Y-54160000D03*
X143772000Y-51620000D03*
X143518000Y-49080000D03*
X143772000Y-46540000D03*
X143518000Y-44000000D03*
D11*
X132215000Y-88277000D03*
D10*
X134755000Y-88023000D03*
X137295000Y-88277000D03*
X139835000Y-88023000D03*
%TD*%
D12*
%TO.C, *%
X139725000Y-56425000D03*
D13*
X141025000Y-56425000D03*
%TD*%
D14*
%TO.C,J1*%
X147775000Y-92250000D03*
D15*
X147775000Y-89710000D03*
X147775000Y-87170000D03*
X147775000Y-84630000D03*
X147775000Y-82090000D03*
X147775000Y-79550000D03*
X147775000Y-77010000D03*
X147775000Y-74470000D03*
X147775000Y-71930000D03*
X147775000Y-69390000D03*
X147775000Y-66850000D03*
X147775000Y-64310000D03*
X147775000Y-61770000D03*
X147775000Y-59230000D03*
X147775000Y-56690000D03*
X147775000Y-54150000D03*
X147775000Y-51610000D03*
X147775000Y-49070000D03*
X147775000Y-46530000D03*
X147775000Y-43990000D03*
%TD*%
D16*
%TO.C, *%
X141025000Y-54225000D03*
D17*
X139725000Y-54225000D03*
%TD*%
D12*
%TO.C, *%
X140175000Y-61800000D03*
D13*
X141475000Y-61800000D03*
%TD*%
D14*
%TO.C,J3*%
X124225000Y-44000000D03*
D15*
X124225000Y-46540000D03*
X124225000Y-49080000D03*
X124225000Y-51620000D03*
X124225000Y-54160000D03*
X124225000Y-56700000D03*
X124225000Y-59240000D03*
X124225000Y-61780000D03*
X124225000Y-64320000D03*
X124225000Y-66860000D03*
X124225000Y-69400000D03*
X124225000Y-71940000D03*
X124225000Y-74480000D03*
X124225000Y-77020000D03*
X124225000Y-79560000D03*
X124225000Y-82100000D03*
X124225000Y-84640000D03*
X124225000Y-87180000D03*
X124225000Y-89720000D03*
X124225000Y-92260000D03*
%TD*%
D14*
%TO.C,J2*%
X132210000Y-97100000D03*
D15*
X134750000Y-97100000D03*
X137290000Y-97100000D03*
X139830000Y-97100000D03*
%TD*%
D12*
%TO.C, *%
X131325000Y-66825000D03*
D13*
X132625000Y-66825000D03*
%TD*%
D14*
%TO.C,  *%
X137200000Y-71950000D03*
D15*
X139740000Y-71950000D03*
X137200000Y-74490000D03*
X139740000Y-74490000D03*
X137200000Y-77030000D03*
X139740000Y-77030000D03*
X137200000Y-79570000D03*
X139740000Y-79570000D03*
X137200000Y-82110000D03*
X139740000Y-82110000D03*
%TD*%
D14*
%TO.C, *%
X132050000Y-71950000D03*
D15*
X134590000Y-71950000D03*
X132050000Y-74490000D03*
X134590000Y-74490000D03*
X132050000Y-77030000D03*
X134590000Y-77030000D03*
X132050000Y-79570000D03*
X134590000Y-79570000D03*
X132050000Y-82110000D03*
X134590000Y-82110000D03*
%TD*%
D18*
%TO.C, *%
X79175000Y-103650000D03*
D19*
X69175000Y-88650000D03*
D20*
X59175000Y-113650000D03*
D21*
X99175000Y-113650000D03*
X99175000Y-108650000D03*
X99175000Y-98650000D03*
X99175000Y-93650000D03*
%TD*%
D18*
%TO.C, *%
X79200000Y-56600000D03*
D19*
X69200000Y-41600000D03*
D20*
X59200000Y-66600000D03*
D21*
X99200000Y-66600000D03*
X99200000Y-61600000D03*
X99200000Y-51600000D03*
X99200000Y-46600000D03*
%TD*%
D18*
%TO.C, *%
X79125000Y-150900000D03*
D19*
X69125000Y-135900000D03*
D20*
X59125000Y-160900000D03*
D21*
X99125000Y-160900000D03*
X99125000Y-155900000D03*
X99125000Y-145900000D03*
X99125000Y-140900000D03*
%TD*%
M02*
