%TF.GenerationSoftware,KiCad,Pcbnew,(6.0.4-0)*%
%TF.CreationDate,2022-06-27T16:54:41+01:00*%
%TF.ProjectId,isoBig,69736f42-6967-42e6-9b69-6361645f7063,rev?*%
%TF.SameCoordinates,Original*%
%TF.FileFunction,Profile,NP*%
%FSLAX46Y46*%
G04 Gerber Fmt 4.6, Leading zero omitted, Abs format (unit mm)*
G04 Created by KiCad (PCBNEW (6.0.4-0)) date 2022-06-27 16:54:41*
%MOMM*%
%LPD*%
G01*
G04 APERTURE LIST*
%TA.AperFunction,Profile*%
%ADD10C,0.100000*%
%TD*%
G04 APERTURE END LIST*
D10*
X26048839Y-183675756D02*
G75*
G03*
X28335020Y-185954073I3126161J850756D01*
G01*
X120275038Y-55900000D02*
G75*
G03*
X120275038Y-55900000I-8125038J0D01*
G01*
X28691494Y-22381071D02*
X149791837Y-22325928D01*
X151824074Y-24358169D02*
X151815019Y-105682074D01*
X26048839Y-183675756D02*
X25975021Y-25114074D01*
X130479021Y-109746074D02*
X130479019Y-183914074D01*
X57326270Y-151425000D02*
G75*
G03*
X57326270Y-151425000I-6151270J0D01*
G01*
X124375769Y-178125000D02*
G75*
G03*
X124375769Y-178125000I-1625769J0D01*
G01*
X151824074Y-24358169D02*
G75*
G03*
X149791837Y-22325928I-2774074J-741831D01*
G01*
X120325038Y-151425000D02*
G75*
G03*
X120325038Y-151425000I-8125038J0D01*
G01*
X28691494Y-22381071D02*
G75*
G03*
X25975021Y-25114074I1008506J-3718929D01*
G01*
X35650000Y-178275000D02*
G75*
G03*
X35650000Y-178275000I-1625000J0D01*
G01*
X145700192Y-100075000D02*
G75*
G03*
X145700192Y-100075000I-1625192J0D01*
G01*
X145700192Y-28400000D02*
G75*
G03*
X145700192Y-28400000I-1625192J0D01*
G01*
X87128748Y-103637537D02*
G75*
G03*
X87128748Y-103637537I-7957728J0D01*
G01*
X35400189Y-30175000D02*
G75*
G03*
X35400189Y-30175000I-1650189J0D01*
G01*
X149783192Y-107714723D02*
X132513727Y-107724278D01*
X132513727Y-107724278D02*
G75*
G03*
X130479021Y-109746074I736273J-2775722D01*
G01*
X128448483Y-185951500D02*
X28335020Y-185954073D01*
X149783192Y-107714723D02*
G75*
G03*
X151815019Y-105682074I-733192J2764723D01*
G01*
X128448483Y-185951500D02*
G75*
G03*
X130479019Y-183914074I-748483J2776500D01*
G01*
X57425457Y-55875000D02*
G75*
G03*
X57425457Y-55875000I-6150457J0D01*
G01*
M02*
