M48
; DRILL file {KiCad (6.0.4-0)} date Monday, 27 June 2022 at 16:54:44
; FORMAT={-:-/ absolute / metric / decimal}
; #@! TF.CreationDate,2022-06-27T16:54:44+01:00
; #@! TF.GenerationSoftware,Kicad,Pcbnew,(6.0.4-0)
; #@! TF.FileFunction,Plated,1,2,PTH
FMAT,2
METRIC
; #@! TA.AperFunction,Plated,PTH,ViaDrill
T1C0.400
; #@! TA.AperFunction,Plated,PTH,ComponentDrill
T2C0.762
; #@! TA.AperFunction,Plated,PTH,ComponentDrill
T3C1.000
; #@! TA.AperFunction,Plated,PTH,ComponentDrill
T4C1.016
; #@! TA.AperFunction,Plated,PTH,ComponentDrill
T5C2.000
; #@! TA.AperFunction,Plated,PTH,ComponentDrill
T6C14.000
%
G90
G05
T1
X137.425Y-56.5
X137.55Y-60.875
T2
X99.125Y-140.9
X99.125Y-145.9
X99.125Y-155.9
X99.125Y-160.9
X99.175Y-93.65
X99.175Y-98.65
X99.175Y-108.65
X99.175Y-113.65
X99.2Y-46.6
X99.2Y-51.6
X99.2Y-61.6
X99.2Y-66.6
T3
X124.225Y-44.0
X124.225Y-46.54
X124.225Y-49.08
X124.225Y-51.62
X124.225Y-54.16
X124.225Y-56.7
X124.225Y-59.24
X124.225Y-61.78
X124.225Y-64.32
X124.225Y-66.86
X124.225Y-69.4
X124.225Y-71.94
X124.225Y-74.48
X124.225Y-77.02
X124.225Y-79.56
X124.225Y-82.1
X124.225Y-84.64
X124.225Y-87.18
X124.225Y-89.72
X124.225Y-92.26
X132.05Y-71.95
X132.05Y-74.49
X132.05Y-77.03
X132.05Y-79.57
X132.05Y-82.11
X132.21Y-97.1
X134.59Y-71.95
X134.59Y-74.49
X134.59Y-77.03
X134.59Y-79.57
X134.59Y-82.11
X134.75Y-97.1
X137.2Y-71.95
X137.2Y-74.49
X137.2Y-77.03
X137.2Y-79.57
X137.2Y-82.11
X137.29Y-97.1
X139.74Y-71.95
X139.74Y-74.49
X139.74Y-77.03
X139.74Y-79.57
X139.74Y-82.11
X139.83Y-97.1
X147.775Y-43.99
X147.775Y-46.53
X147.775Y-49.07
X147.775Y-51.61
X147.775Y-54.15
X147.775Y-56.69
X147.775Y-59.23
X147.775Y-61.77
X147.775Y-64.31
X147.775Y-66.85
X147.775Y-69.39
X147.775Y-71.93
X147.775Y-74.47
X147.775Y-77.01
X147.775Y-79.55
X147.775Y-82.09
X147.775Y-84.63
X147.775Y-87.17
X147.775Y-89.71
X147.775Y-92.25
T4
X128.278Y-46.54
X128.278Y-51.62
X128.278Y-56.7
X128.278Y-61.78
X128.278Y-66.86
X128.278Y-71.94
X128.278Y-77.02
X128.278Y-82.1
X128.278Y-87.18
X128.278Y-92.26
X128.532Y-44.0
X128.532Y-49.08
X128.532Y-54.16
X128.532Y-59.24
X128.532Y-64.32
X128.532Y-69.4
X128.532Y-74.48
X128.532Y-79.56
X128.532Y-84.64
X128.532Y-89.72
X132.215Y-88.277
X134.755Y-88.023
X137.295Y-88.277
X139.835Y-88.023
X143.518Y-44.0
X143.518Y-49.08
X143.518Y-54.16
X143.518Y-59.24
X143.518Y-64.32
X143.518Y-69.4
X143.518Y-74.48
X143.518Y-79.56
X143.518Y-84.64
X143.518Y-89.72
X143.772Y-46.54
X143.772Y-51.62
X143.772Y-56.7
X143.772Y-61.78
X143.772Y-66.86
X143.772Y-71.94
X143.772Y-77.02
X143.772Y-82.1
X143.772Y-87.18
X143.772Y-92.26
T6
X79.125Y-150.9
X79.175Y-103.65
X79.2Y-56.6
T3
G00X59.125Y-158.9
M15
G01X59.125Y-162.9
M16
G05
G00X59.175Y-111.65
M15
G01X59.175Y-115.65
M16
G05
G00X59.2Y-64.6
M15
G01X59.2Y-68.6
M16
G05
T5
G00X69.125Y-134.9
M15
G01X69.125Y-136.9
M16
G05
G00X69.175Y-87.65
M15
G01X69.175Y-89.65
M16
G05
G00X69.2Y-40.6
M15
G01X69.2Y-42.6
M16
G05
T0
M30
